HIERARCHY
ROOT hip
{
  OFFSET 0 90.174 2.4664
  CHANNELS 6 Xposition Yposition Zposition Zrotation Xrotation Yrotation
  JOINT abdomen
  {
    OFFSET 0 -1.186 -1.5018
    CHANNELS 6 Xposition Yposition Zposition Zrotation Xrotation Yrotation
    JOINT abdomen2
    {
      OFFSET 0 9.964 0.2134
      CHANNELS 6 Xposition Yposition Zposition Zrotation Xrotation Yrotation
      JOINT chest
      {
        OFFSET 0 13.134 -3.2573
        CHANNELS 6 Xposition Yposition Zposition Zrotation Xrotation Yrotation
        JOINT neck
        {
          OFFSET 0 20.686 -1.6905
          CHANNELS 6 Xposition Yposition Zposition Zrotation Xrotation Yrotation
          JOINT head
          {
            OFFSET 0 7.238 -0.1237
            CHANNELS 6 Xposition Yposition Zposition Zrotation Xrotation Yrotation
            End Site
            {
              OFFSET 0 0 0
            }
          }
        }
        JOINT lCollar
        {
          OFFSET 1.7069 20.075 5.0056
          CHANNELS 6 Xposition Yposition Zposition Zrotation Xrotation Yrotation
          JOINT lShldr
          {
            OFFSET 13.6458 -0.047 -4.849
            CHANNELS 6 Xposition Yposition Zposition Zrotation Xrotation Yrotation
            JOINT lForeArm
            {
              OFFSET 28.3255 -0.9759 2.2888
              CHANNELS 6 Xposition Yposition Zposition Zrotation Xrotation Yrotation
              JOINT lHand
              {
                OFFSET 22.1583 -0.53 10.8316
                CHANNELS 6 Xposition Yposition Zposition Zrotation Xrotation Yrotation
                JOINT lThumb1
                {
                  OFFSET 0.786 0.112 2.5817
                  CHANNELS 6 Xposition Yposition Zposition Zrotation Xrotation Yrotation
                  JOINT lThumb2
                  {
                    OFFSET 0.3601 -0.878 4.2331
                    CHANNELS 6 Xposition Yposition Zposition Zrotation Xrotation Yrotation
                    JOINT lThumb2_End
                    {
                      OFFSET 1.8127 -1.216 2.2227
                      CHANNELS 6 Xposition Yposition Zposition Zrotation Xrotation Yrotation
                      End Site
                      {
                        OFFSET 0.0181 -0.0122 0.0222
                      }
                    }
                  }
                }
                JOINT lCarpal1
                {
                  OFFSET 0.9571 1.114 1.7695
                  CHANNELS 6 Xposition Yposition Zposition Zrotation Xrotation Yrotation
                  JOINT lIndex1
                  {
                    OFFSET 4.1246 0.487 4.1451
                    CHANNELS 6 Xposition Yposition Zposition Zrotation Xrotation Yrotation
                    JOINT lIndex2
                    {
                      OFFSET 3.4052 -1.454 2.7682
                      CHANNELS 6 Xposition Yposition Zposition Zrotation Xrotation Yrotation
                      JOINT lIndex2_End
                      {
                        OFFSET 1.4531 -1.795 1.2713
                        CHANNELS 6 Xposition Yposition Zposition Zrotation Xrotation Yrotation
                        End Site
                        {
                          OFFSET 0.0145 -0.0179 0.0127
                        }
                      }
                    }
                  }
                  JOINT lMid1
                  {
                    OFFSET 5.6954 0.21 2.1184
                    CHANNELS 6 Xposition Yposition Zposition Zrotation Xrotation Yrotation
                    JOINT lMid2
                    {
                      OFFSET 3.9766 -1.54 2.3863
                      CHANNELS 6 Xposition Yposition Zposition Zrotation Xrotation Yrotation
                      JOINT lMid2_End
                      {
                        OFFSET 1.4042 -1.926 1.125
                        CHANNELS 6 Xposition Yposition Zposition Zrotation Xrotation Yrotation
                        End Site
                        {
                          OFFSET 0.014 -0.0193 0.0113
                        }
                      }
                    }
                  }
                }
                JOINT lCarpal2
                {
                  OFFSET 2.0956 0.66 -0.3894
                  CHANNELS 6 Xposition Yposition Zposition Zrotation Xrotation Yrotation
                  JOINT lRing1
                  {
                    OFFSET 5.0395 -0.09 2.4971
                    CHANNELS 6 Xposition Yposition Zposition Zrotation Xrotation Yrotation
                    JOINT lRing2
                    {
                      OFFSET 3.7921 -1.552 1.4806
                      CHANNELS 6 Xposition Yposition Zposition Zrotation Xrotation Yrotation
                      JOINT lRing2_End
                      {
                        OFFSET 1.4655 -1.808 0.9609
                        CHANNELS 6 Xposition Yposition Zposition Zrotation Xrotation Yrotation
                        End Site
                        {
                          OFFSET 0.0147 -0.0181 0.0096
                        }
                      }
                    }
                  }
                  JOINT lPinky1
                  {
                    OFFSET 4.9141 -1.269 0.3591
                    CHANNELS 6 Xposition Yposition Zposition Zrotation Xrotation Yrotation
                    JOINT lPinky2
                    {
                      OFFSET 3.1477 -1.685 0.8462
                      CHANNELS 6 Xposition Yposition Zposition Zrotation Xrotation Yrotation
                      JOINT lPinky2_End
                      {
                        OFFSET 0.8055 -1.585 0.7955
                        CHANNELS 6 Xposition Yposition Zposition Zrotation Xrotation Yrotation
                        End Site
                        {
                          OFFSET 0.0081 -0.0158 0.008
                        }
                      }
                    }
                  }
                }
              }
            }
          }
        }
        JOINT rCollar
        {
          OFFSET -1.7069 20.075 5.0056
          CHANNELS 6 Xposition Yposition Zposition Zrotation Xrotation Yrotation
          JOINT rShldr
          {
            OFFSET -13.6458 -0.047 -4.849
            CHANNELS 6 Xposition Yposition Zposition Zrotation Xrotation Yrotation
            JOINT rForeArm
            {
              OFFSET -28.3255 -0.9759 2.2888
              CHANNELS 6 Xposition Yposition Zposition Zrotation Xrotation Yrotation
              JOINT rHand
              {
                OFFSET -22.1583 -0.53 10.8316
                CHANNELS 6 Xposition Yposition Zposition Zrotation Xrotation Yrotation
                JOINT rThumb1
                {
                  OFFSET -0.786 0.112 2.5817
                  CHANNELS 6 Xposition Yposition Zposition Zrotation Xrotation Yrotation
                  JOINT rThumb2
                  {
                    OFFSET -0.3601 -0.878 4.2331
                    CHANNELS 6 Xposition Yposition Zposition Zrotation Xrotation Yrotation
                    JOINT rThumb2_End
                    {
                      OFFSET -1.8127 -1.216 2.2227
                      CHANNELS 6 Xposition Yposition Zposition Zrotation Xrotation Yrotation
                      End Site
                      {
                        OFFSET -0.0181 -0.0122 0.0222
                      }
                    }
                  }
                }
                JOINT rCarpal1
                {
                  OFFSET -0.9571 1.114 1.7695
                  CHANNELS 6 Xposition Yposition Zposition Zrotation Xrotation Yrotation
                  JOINT rIndex1
                  {
                    OFFSET -4.1246 0.487 4.1451
                    CHANNELS 6 Xposition Yposition Zposition Zrotation Xrotation Yrotation
                    JOINT rIndex2
                    {
                      OFFSET -3.4052 -1.454 2.7682
                      CHANNELS 6 Xposition Yposition Zposition Zrotation Xrotation Yrotation
                      JOINT rIndex2_End
                      {
                        OFFSET -1.4531 -1.795 1.2713
                        CHANNELS 6 Xposition Yposition Zposition Zrotation Xrotation Yrotation
                        End Site
                        {
                          OFFSET -0.0145 -0.018 0.0127
                        }
                      }
                    }
                  }
                  JOINT rMid1
                  {
                    OFFSET -5.6954 0.21 2.1184
                    CHANNELS 6 Xposition Yposition Zposition Zrotation Xrotation Yrotation
                    JOINT rMid2
                    {
                      OFFSET -3.9766 -1.54 2.3863
                      CHANNELS 6 Xposition Yposition Zposition Zrotation Xrotation Yrotation
                      JOINT rMid2_End
                      {
                        OFFSET -1.4042 -1.926 1.125
                        CHANNELS 6 Xposition Yposition Zposition Zrotation Xrotation Yrotation
                        End Site
                        {
                          OFFSET -0.014 -0.0193 0.0113
                        }
                      }
                    }
                  }
                }
                JOINT rCarpal2
                {
                  OFFSET -2.0956 0.66 -0.3894
                  CHANNELS 6 Xposition Yposition Zposition Zrotation Xrotation Yrotation
                  JOINT rRing1
                  {
                    OFFSET -5.0395 -0.09 2.4971
                    CHANNELS 6 Xposition Yposition Zposition Zrotation Xrotation Yrotation
                    JOINT rRing2
                    {
                      OFFSET -3.7921 -1.552 1.4806
                      CHANNELS 6 Xposition Yposition Zposition Zrotation Xrotation Yrotation
                      JOINT rRing2_End
                      {
                        OFFSET -1.4655 -1.808 0.9609
                        CHANNELS 6 Xposition Yposition Zposition Zrotation Xrotation Yrotation
                        End Site
                        {
                          OFFSET -0.0147 -0.0181 0.0096
                        }
                      }
                    }
                  }
                  JOINT rPinky1
                  {
                    OFFSET -4.9141 -1.269 0.3592
                    CHANNELS 6 Xposition Yposition Zposition Zrotation Xrotation Yrotation
                    JOINT rPinky2
                    {
                      OFFSET -3.1477 -1.685 0.8462
                      CHANNELS 6 Xposition Yposition Zposition Zrotation Xrotation Yrotation
                      JOINT rPinky2_End
                      {
                        OFFSET -0.8055 -1.585 0.7955
                        CHANNELS 6 Xposition Yposition Zposition Zrotation Xrotation Yrotation
                        End Site
                        {
                          OFFSET -0.0081 -0.0158 0.008
                        }
                      }
                    }
                  }
                }
              }
            }
          }
        }
      }
    }
  }
  JOINT lThigh
  {
    OFFSET 8.367 -8.2066 0.5982
    CHANNELS 6 Xposition Yposition Zposition Zrotation Xrotation Yrotation
    JOINT lShin
    {
      OFFSET 2.1923 -43.463 -0.4932
      CHANNELS 6 Xposition Yposition Zposition Zrotation Xrotation Yrotation
      JOINT lFoot
      {
        OFFSET 0.7333 -45.8593 -2.6451
        CHANNELS 6 Xposition Yposition Zposition Zrotation Xrotation Yrotation
        End Site
        {
          OFFSET 2.6618 -4.2699 12.3931
        }
      }
    }
  }
  JOINT rThigh
  {
    OFFSET -8.367 -8.2066 0.5982
    CHANNELS 6 Xposition Yposition Zposition Zrotation Xrotation Yrotation
    JOINT rShin
    {
      OFFSET -2.1923 -43.463 -0.4931
      CHANNELS 6 Xposition Yposition Zposition Zrotation Xrotation Yrotation
      JOINT rFoot
      {
        OFFSET -0.7333 -45.8593 -2.6451
        CHANNELS 6 Xposition Yposition Zposition Zrotation Xrotation Yrotation
        End Site
        {
          OFFSET -2.6618 -4.2699 12.3931
        }
      }
    }
  }
}
MOTION
Frames:	4
Frame Time:	0.0333333
0 90.174 2.4664 0 0 -0 0 -1.186 -1.5018 0 0 -0 0 9.964 0.2134 0 0 -0 0 13.134 -3.2573 0 0 -0 0 20.686 -1.6905 0 0 -0 0 7.238 -0.1237 0 0 -0 1.7069 20.075 5.0056 0 0 -0 13.6458 -0.047 -4.849 1.66051 0.0835086 5.75766 28.3255 -0.9759 2.2888 -0.0175111 0.895433 15.7816 22.1583 -0.53 10.8316 7.95139e-016 -1.98785e-016 -0 0.786 0.112 2.5817 5.46658e-016 -3.97569e-016 -0 0.3601 -0.878 4.2331 5.96354e-016 0 -0 1.8127 -1.216 2.2227 3.97569e-016 1.98785e-016 9.54166e-015 0.9571 1.114 1.7695 1.49089e-016 -3.97569e-016 -0 4.1246 0.487 4.1451 6.4605e-016 0 3.18055e-015 3.4052 -1.454 2.7682 5.96354e-016 0 3.18055e-015 1.4531 -1.795 1.2713 8.94531e-016 -1.98785e-016 6.36111e-015 5.6954 0.21 2.1184 6.4605e-016 0 3.18055e-015 3.9766 -1.54 2.3863 5.96354e-016 0 3.18055e-015 1.4042 -1.926 1.125 8.94531e-016 -1.98785e-016 6.36111e-015 2.0956 0.66 -0.3894 1.49089e-016 -3.97569e-016 -0 5.0395 -0.09 2.4971 6.4605e-016 0 3.18055e-015 3.7921 -1.552 1.4806 5.96354e-016 0 3.18055e-015 1.4655 -1.808 0.9609 8.94531e-016 -1.98785e-016 6.36111e-015 4.9141 -1.269 0.3591 6.4605e-016 0 3.18055e-015 3.1477 -1.685 0.8462 5.96354e-016 0 3.18055e-015 0.8055 -1.585 0.7955 8.94531e-016 -1.98785e-016 6.36111e-015 -1.7069 20.075 5.0056 0 0 -0 -13.6458 -0.047 -4.849 -1.4496 0.0636048 -5.0245 -28.3255 -0.9759 2.2888 -1.74811 1.20616 -16.8394 -22.1583 -0.53 10.8316 -1.19271e-015 1.98785e-016 -3.18055e-015 -0.786 0.112 2.5817 -3.97569e-016 1.98785e-016 -3.18055e-015 -0.3601 -0.878 4.2331 -2.98177e-016 1.98785e-016 -3.18055e-015 -1.8127 -1.216 2.2227 -2.98177e-016 3.97569e-016 -0 -0.9571 1.114 1.7695 4.96962e-016 0 -6.36111e-015 -4.1246 0.487 4.1451 -9.93923e-017 3.97569e-016 -0 -3.4052 -1.454 2.7682 -8.94531e-016 5.96354e-016 -0 -1.4531 -1.795 1.2713 -3.97569e-016 3.97569e-016 -0 -5.6954 0.21 2.1184 -9.93923e-017 3.97569e-016 -0 -3.9766 -1.54 2.3863 -8.94531e-016 5.96354e-016 -0 -1.4042 -1.926 1.125 -3.97569e-016 3.97569e-016 -0 -2.0956 0.66 -0.3894 4.96962e-016 0 -6.36111e-015 -5.0395 -0.09 2.4971 -9.93923e-017 3.97569e-016 -0 -3.7921 -1.552 1.4806 -8.94531e-016 5.96354e-016 -0 -1.4655 -1.808 0.9609 -3.97569e-016 3.97569e-016 -0 -4.9141 -1.269 0.3592 -9.93923e-017 3.97569e-016 -0 -3.1477 -1.685 0.8462 -8.94531e-016 5.96354e-016 -0 -0.8055 -1.585 0.7955 -3.97569e-016 3.97569e-016 -0 8.367 -8.2066 0.5982 -4.66115 -1.03232 0.120763 2.1923 -43.463 -0.4932 0.00990601 1.55097 0.177175 0.7333 -45.8593 -2.6451 4.65196 -0.54114 -0.255042 -8.367 -8.2066 0.5982 4.66115 -1.03222 -0.120763 -2.1923 -43.463 -0.4931 -0.00990459 1.5509 -0.177176 -0.7333 -45.8593 -2.6451 -4.65196 -0.541171 0.255041 
-0.0479323 87.134 7.33629 0 17.3364 -0 0 -1.186 -1.5018 -0.266007 6.62105 -0.188974 1.11022e-016 9.964 0.2134 -0.515072 13.2429 -0.350305 0 13.134 -3.2573 -0.515072 13.2429 -0.350305 4.44089e-016 20.686 -1.6905 1.75315e-006 7.2641 -3.58606e-007 0 7.238 -0.1237 -1.11481e-007 18.6874 -5.93035e-008 1.7069 20.075 5.0056 3.30961 -1.88973 3.85983 13.6458 -0.047 -4.849 -81.1198 -1.93645 7.29057 28.3255 -0.9759 2.2888 -24.1816 6.63879 21.6908 22.1583 -0.53 10.8316 2.11222 0.680594 -30.6879 0.786 0.112 2.5817 -3.18055e-015 -7.95139e-016 9.54166e-015 0.3601 -0.878 4.2331 -4.28166e-006 4.57223e-006 -4.4257e-006 1.8127 -1.216 2.2227 7.95139e-016 7.95139e-016 -0 0.9571 1.114 1.7695 -2.38542e-015 -7.95139e-016 -0 4.1246 0.487 4.1451 7.95139e-016 1.59028e-015 3.18055e-015 3.4052 -1.454 2.7682 -4.28166e-006 4.57223e-006 -4.4257e-006 1.4531 -1.795 1.2713 1.59028e-015 0 -6.36111e-015 5.6954 0.21 2.1184 7.95139e-016 1.59028e-015 3.18055e-015 3.9766 -1.54 2.3863 -4.28166e-006 4.57223e-006 -4.4257e-006 1.4042 -1.926 1.125 1.59028e-015 0 -6.36111e-015 2.0956 0.66 -0.3894 -2.38542e-015 -7.95139e-016 -0 5.0395 -0.09 2.4971 7.95139e-016 1.59028e-015 3.18055e-015 3.7921 -1.552 1.4806 -4.28166e-006 4.57223e-006 -4.4257e-006 1.4655 -1.808 0.9609 1.59028e-015 0 -6.36111e-015 4.9141 -1.269 0.3591 7.95139e-016 1.59028e-015 3.18055e-015 3.1477 -1.685 0.8462 -4.28166e-006 4.57223e-006 -4.4257e-006 0.8055 -1.585 0.7955 1.59028e-015 0 -6.36111e-015 -1.7069 20.075 5.0056 11.5475 -1.29364 8.28138 -13.6458 -0.047 -4.849 56.2655 26.4909 30.1195 -28.3255 -0.9759 2.2888 0.5835 3.88504 22.6802 -22.1583 -0.53 10.8316 15.0485 -16.651 8.24292 -0.786 0.112 2.5817 3.57812e-015 3.18055e-015 7.95139e-016 -0.3601 -0.878 4.2331 1.19271e-015 6.36111e-015 7.95139e-016 -1.8127 -1.216 2.2227 -1.59028e-015 0 -7.95139e-016 -0.9571 1.114 1.7695 3.57812e-015 0 7.95139e-016 -4.1246 0.487 4.1451 -3.97569e-016 -9.54166e-015 3.97569e-015 -3.4052 -1.454 2.7682 -7.95139e-016 6.36111e-015 7.95139e-016 -1.4531 -1.795 1.2713 -7.95139e-016 3.18055e-015 1.59028e-015 -5.6954 0.21 2.1184 -3.97569e-016 -9.54166e-015 3.97569e-015 -3.9766 -1.54 2.3863 -7.95139e-016 6.36111e-015 7.95139e-016 -1.4042 -1.926 1.125 -7.95139e-016 3.18055e-015 1.59028e-015 -2.0956 0.66 -0.3894 3.57812e-015 0 7.95139e-016 -5.0395 -0.09 2.4971 -3.97569e-016 -9.54166e-015 3.97569e-015 -3.7921 -1.552 1.4806 -7.95139e-016 6.36111e-015 7.95139e-016 -1.4655 -1.808 0.9609 -7.95139e-016 3.18055e-015 1.59028e-015 -4.9141 -1.269 0.3592 -3.97569e-016 -9.54166e-015 3.97569e-015 -3.1477 -1.685 0.8462 -7.95139e-016 6.36111e-015 7.95139e-016 -0.8055 -1.585 0.7955 -7.95139e-016 3.18055e-015 1.59028e-015 8.367 -8.2066 0.5982 -1.11294 -15.8399 15.2171 2.1923 -43.463 -0.4932 69.2217 81.7088 -65.773 0.7333 -45.8593 -2.6451 -44.2676 65.2553 66.5345 -8.367 -8.2066 0.5982 1.27779 -17.5706 -15.8161 -2.1923 -43.463 -0.4931 -122.896 81.6941 119.356 -0.7333 -45.8593 -2.6451 13.0452 38.6711 -16.9613 
-0.0428696 87.3927 7.00896 0 17.5501 -0 0 -1.186 -1.5018 -0.254736 5.31443 -0.17427 1.11022e-016 9.964 0.2134 -0.496381 10.6296 -0.326814 0 13.134 -3.2573 -0.496381 10.6296 -0.326814 0 20.686 -1.6905 3.9848e-006 6.21961 1.30153e-006 -4.44089e-016 7.238 -0.1237 -1.14405e-007 16.0042 -2.29193e-007 1.7069 20.075 5.0056 3.60414 1.31255 3.99008 13.6458 -0.047 -4.849 -76.2534 -1.81772 7.20029 28.3255 -0.9759 2.2888 -23.5134 6.11012 21.6829 22.1583 -0.53 10.8316 2.69303 1.18323 -28.8128 0.786 0.112 2.5817 -1.59028e-015 0 -0 0.3601 -0.878 4.2331 -3.97569e-016 -1.19271e-015 -0 1.8127 -1.216 2.2227 -1.19271e-015 -1.19271e-015 -0 0.9571 1.114 1.7695 -2.38542e-015 3.97569e-016 -0 4.1246 0.487 4.1451 -3.97569e-016 1.19271e-015 9.54166e-015 3.4052 -1.454 2.7682 -7.95139e-016 -7.95139e-016 -0 1.4531 -1.795 1.2713 3.97569e-016 -7.95139e-016 -0 5.6954 0.21 2.1184 -3.97569e-016 1.19271e-015 9.54166e-015 3.9766 -1.54 2.3863 -7.95139e-016 -7.95139e-016 -0 1.4042 -1.926 1.125 3.97569e-016 -7.95139e-016 -0 2.0956 0.66 -0.3894 -2.38542e-015 3.97569e-016 -0 5.0395 -0.09 2.4971 -3.97569e-016 1.19271e-015 9.54166e-015 3.7921 -1.552 1.4806 -7.95139e-016 -7.95139e-016 -0 1.4655 -1.808 0.9609 3.97569e-016 -7.95139e-016 -0 4.9141 -1.269 0.3591 -3.97569e-016 1.19271e-015 9.54166e-015 3.1477 -1.685 0.8462 -7.95139e-016 -7.95139e-016 -0 0.8055 -1.585 0.7955 3.97569e-016 -7.95139e-016 -0 -1.7069 20.075 5.0056 9.1441 -0.310151 7.58569 -13.6458 -0.047 -4.849 57.2351 26.5006 25.6177 -28.3255 -0.9759 2.2888 0.548866 3.90762 20.3588 -22.1583 -0.53 10.8316 13.2585 -18.3737 5.78298 -0.786 0.112 2.5817 1.58561e-006 2.02002e-006 -3.37592e-007 -0.3601 -0.878 4.2331 -1.19271e-015 6.36111e-015 -7.95139e-016 -1.8127 -1.216 2.2227 2.10303e-007 9.65e-007 -1.3614e-006 -0.9571 1.114 1.7695 -4.77083e-015 0 -1.59028e-015 -4.1246 0.487 4.1451 1.58561e-006 2.02002e-006 -3.37592e-007 -3.4052 -1.454 2.7682 -3.57812e-015 -3.18055e-015 -7.95139e-016 -1.4531 -1.795 1.2713 2.10303e-007 9.65e-007 -1.3614e-006 -5.6954 0.21 2.1184 1.58561e-006 2.02002e-006 -3.37592e-007 -3.9766 -1.54 2.3863 -3.57812e-015 -3.18055e-015 -7.95139e-016 -1.4042 -1.926 1.125 2.10303e-007 9.65e-007 -1.3614e-006 -2.0956 0.66 -0.3894 -4.77083e-015 0 -1.59028e-015 -5.0395 -0.09 2.4971 1.58561e-006 2.02002e-006 -3.37592e-007 -3.7921 -1.552 1.4806 -3.57812e-015 -3.18055e-015 -7.95139e-016 -1.4655 -1.808 0.9609 2.10303e-007 9.65e-007 -1.3614e-006 -4.9141 -1.269 0.3592 1.58561e-006 2.02002e-006 -3.37592e-007 -3.1477 -1.685 0.8462 -3.57812e-015 -3.18055e-015 -7.95139e-016 -0.8055 -1.585 0.7955 2.10303e-007 9.65e-007 -1.3614e-006 8.367 -8.2066 0.5982 -1.44232 -16.6592 14.3107 2.1923 -43.463 -0.4932 43.8771 79.5998 -41.0008 0.7333 -45.8593 -2.6451 -34.1836 64.0498 56.254 -8.367 -8.2066 0.5982 1.59274 -18.2175 -14.8229 -2.1923 -43.463 -0.4931 -85.0229 83.4405 82.0617 -0.7333 -45.8593 -2.6451 11.2278 36.5152 -15.413 
-0.0430253 87.3293 6.8279 0 18.7162 -0 0 -1.186 -1.5018 -0.253825 4.41673 -0.176048 -1.11022e-016 9.964 0.2134 -0.496213 8.83421 -0.333898 2.22045e-016 13.134 -3.2573 -0.496213 8.8342 -0.333898 0 20.686 -1.6905 5.2396e-006 5.63659 4.14862e-007 4.44089e-016 7.238 -0.1237 -2.20916e-007 14.5058 2.74127e-007 1.7069 20.075 5.0056 4.05982 4.25541 4.30513 13.6458 -0.047 -4.849 -76.2534 -1.81772 7.20031 28.3255 -0.9759 2.2888 -24.1194 6.31665 21.6975 22.1583 -0.53 10.8316 3.39297 1.63971 -28.7515 0.786 0.112 2.5817 1.59028e-015 1.98785e-015 -0 0.3601 -0.878 4.2331 7.95139e-016 7.95139e-016 -0 1.8127 -1.216 2.2227 9.06071e-007 2.12408e-006 2.36227e-006 0.9571 1.114 1.7695 7.95139e-016 1.19271e-015 9.54166e-015 4.1246 0.487 4.1451 2.38542e-015 7.95139e-016 6.36111e-015 3.4052 -1.454 2.7682 1.59028e-015 3.97569e-016 -3.18055e-015 1.4531 -1.795 1.2713 9.06071e-007 2.12408e-006 2.36227e-006 5.6954 0.21 2.1184 2.38542e-015 7.95139e-016 6.36111e-015 3.9766 -1.54 2.3863 1.59028e-015 3.97569e-016 -3.18055e-015 1.4042 -1.926 1.125 9.06071e-007 2.12408e-006 2.36227e-006 2.0956 0.66 -0.3894 7.95139e-016 1.19271e-015 9.54166e-015 5.0395 -0.09 2.4971 2.38542e-015 7.95139e-016 6.36111e-015 3.7921 -1.552 1.4806 1.59028e-015 3.97569e-016 -3.18055e-015 1.4655 -1.808 0.9609 9.06071e-007 2.12408e-006 2.36227e-006 4.9141 -1.269 0.3591 2.38542e-015 7.95139e-016 6.36111e-015 3.1477 -1.685 0.8462 1.59028e-015 3.97569e-016 -3.18055e-015 0.8055 -1.585 0.7955 9.06071e-007 2.12408e-006 2.36227e-006 -1.7069 20.075 5.0056 7.52427 0.556001 7.41413 -13.6458 -0.047 -4.849 60.5284 27.3709 23.5819 -28.3255 -0.9759 2.2888 0.526685 3.93191 20.3621 -22.1583 -0.53 10.8316 12.4553 -20.8413 3.92404 -0.786 0.112 2.5817 2.78299e-015 0 -1.59028e-015 -0.3601 -0.878 4.2331 7.95139e-015 0 -0 -1.8127 -1.216 2.2227 5.1684e-015 0 -1.59028e-015 -0.9571 1.114 1.7695 -8.82781e-032 -3.18055e-015 -1.59028e-015 -4.1246 0.487 4.1451 -1.19271e-015 0 4.77083e-015 -3.4052 -1.454 2.7682 3.18055e-015 0 -0 -1.4531 -1.795 1.2713 3.97569e-015 -3.18055e-015 -1.59028e-015 -5.6954 0.21 2.1184 -1.19271e-015 0 4.77083e-015 -3.9766 -1.54 2.3863 3.18055e-015 0 -0 -1.4042 -1.926 1.125 3.97569e-015 -3.18055e-015 -1.59028e-015 -2.0956 0.66 -0.3894 -8.82781e-032 -3.18055e-015 -1.59028e-015 -5.0395 -0.09 2.4971 -1.19271e-015 0 4.77083e-015 -3.7921 -1.552 1.4806 3.18055e-015 0 -0 -1.4655 -1.808 0.9609 3.97569e-015 -3.18055e-015 -1.59028e-015 -4.9141 -1.269 0.3592 -1.19271e-015 0 4.77083e-015 -3.1477 -1.685 0.8462 3.18055e-015 0 -0 -0.8055 -1.585 0.7955 3.97569e-015 -3.18055e-015 -1.59028e-015 8.367 -8.2066 0.5982 -1.3842 -18.274 14.4259 2.1923 -43.463 -0.4932 45.8605 79.8827 -42.9352 0.7333 -45.8593 -2.6451 -34.2258 64.0619 56.3011 -8.367 -8.2066 0.5982 1.51221 -19.8093 -14.9641 -2.1923 -43.463 -0.4931 -88.6439 83.4188 85.6413 -0.7333 -45.8593 -2.6451 11.241 36.5436 -15.4361 
